<mxfile host="app.diagrams.net" modified="2023-11-07T21:04:46.508Z" agent="Mozilla/5.0 (Windows NT 10.0; Win64; x64; rv:109.0) Gecko/20100101 Firefox/119.0" etag="O89D76T481_RLPt0kkiq" version="22.0.8" type="device">
  <diagram name="Strona-1" id="0wd8F_NiPoBdXosEnCZq">
    <mxGraphModel dx="1050" dy="566" grid="1" gridSize="10" guides="1" tooltips="1" connect="1" arrows="1" fold="1" page="1" pageScale="1" pageWidth="827" pageHeight="1169" math="0" shadow="0">
      <root>
        <mxCell id="0" />
        <mxCell id="1" parent="0" />
        <mxCell id="MgmgcVEvBvE6xo-ADqgp-1" value="" style="rounded=0;whiteSpace=wrap;html=1;" parent="1" vertex="1">
          <mxGeometry x="119" y="60" width="541" height="370" as="geometry" />
        </mxCell>
        <mxCell id="MgmgcVEvBvE6xo-ADqgp-2" value="" style="rounded=0;whiteSpace=wrap;html=1;" parent="1" vertex="1">
          <mxGeometry x="120" y="60" width="130" height="370" as="geometry" />
        </mxCell>
        <mxCell id="MgmgcVEvBvE6xo-ADqgp-3" value="Moje konto" style="rounded=0;whiteSpace=wrap;html=1;" parent="1" vertex="1">
          <mxGeometry x="125" y="90" width="120" height="60" as="geometry" />
        </mxCell>
        <mxCell id="MgmgcVEvBvE6xo-ADqgp-5" value="Moje rośliny" style="rounded=0;whiteSpace=wrap;html=1;fillColor=#d5e8d4;strokeColor=#82b366;" parent="1" vertex="1">
          <mxGeometry x="125" y="160" width="120" height="60" as="geometry" />
        </mxCell>
        <mxCell id="MgmgcVEvBvE6xo-ADqgp-6" value="Kalendarz" style="rounded=0;whiteSpace=wrap;html=1;" parent="1" vertex="1">
          <mxGeometry x="125" y="230" width="120" height="60" as="geometry" />
        </mxCell>
        <mxCell id="MgmgcVEvBvE6xo-ADqgp-7" value="Wyloguj mnie" style="rounded=0;whiteSpace=wrap;html=1;" parent="1" vertex="1">
          <mxGeometry x="560" y="390" width="80" height="20" as="geometry" />
        </mxCell>
        <mxCell id="MgmgcVEvBvE6xo-ADqgp-8" value="Roślina 1" style="rounded=0;whiteSpace=wrap;html=1;" parent="1" vertex="1">
          <mxGeometry x="260" y="80" width="70" height="70" as="geometry" />
        </mxCell>
        <mxCell id="MgmgcVEvBvE6xo-ADqgp-9" value="Roślina 2" style="rounded=0;whiteSpace=wrap;html=1;" parent="1" vertex="1">
          <mxGeometry x="340" y="80" width="70" height="70" as="geometry" />
        </mxCell>
        <mxCell id="MgmgcVEvBvE6xo-ADqgp-10" value="Roślina 3" style="rounded=0;whiteSpace=wrap;html=1;" parent="1" vertex="1">
          <mxGeometry x="420" y="80" width="70" height="70" as="geometry" />
        </mxCell>
        <mxCell id="MgmgcVEvBvE6xo-ADqgp-11" value="Roślina 7" style="rounded=0;whiteSpace=wrap;html=1;" parent="1" vertex="1">
          <mxGeometry x="340" y="160" width="70" height="70" as="geometry" />
        </mxCell>
        <mxCell id="MgmgcVEvBvE6xo-ADqgp-12" value="Roślina 9" style="rounded=0;whiteSpace=wrap;html=1;" parent="1" vertex="1">
          <mxGeometry x="500" y="160" width="70" height="70" as="geometry" />
        </mxCell>
        <mxCell id="MgmgcVEvBvE6xo-ADqgp-13" value="Roślina 8" style="rounded=0;whiteSpace=wrap;html=1;" parent="1" vertex="1">
          <mxGeometry x="420" y="160" width="70" height="70" as="geometry" />
        </mxCell>
        <mxCell id="MgmgcVEvBvE6xo-ADqgp-14" value="Roślina 4" style="rounded=0;whiteSpace=wrap;html=1;" parent="1" vertex="1">
          <mxGeometry x="500" y="80" width="70" height="70" as="geometry" />
        </mxCell>
        <mxCell id="MgmgcVEvBvE6xo-ADqgp-15" value="Roślina 6" style="rounded=0;whiteSpace=wrap;html=1;" parent="1" vertex="1">
          <mxGeometry x="260" y="160" width="70" height="70" as="geometry" />
        </mxCell>
        <mxCell id="MgmgcVEvBvE6xo-ADqgp-16" value="Roślina 5" style="rounded=0;whiteSpace=wrap;html=1;" parent="1" vertex="1">
          <mxGeometry x="580" y="80" width="70" height="70" as="geometry" />
        </mxCell>
        <mxCell id="MgmgcVEvBvE6xo-ADqgp-17" value="&lt;font style=&quot;font-size: 18px;&quot;&gt;+&lt;/font&gt;" style="rounded=0;whiteSpace=wrap;html=1;" parent="1" vertex="1">
          <mxGeometry x="580" y="160" width="70" height="70" as="geometry" />
        </mxCell>
      </root>
    </mxGraphModel>
  </diagram>
</mxfile>
